<svg xmlns="http://www.w3.org/2000/svg" viewBox="0 0 74 64">
  <path fill="black" d="M8.632 51.798c.001-.013 2.056-9.023 4.567-20.023l4.564-20 2.624-.024c1.443-.013 2.624 0 2.624.03 0 .028-.749 7.76-1.664 17.182-.916 9.422-1.642 17.154-1.613 17.183.028.028.08.005.114-.051.035-.057 1.823-7.812 3.973-17.233l3.91-17.131h3.121l-.04.202c-.021.11-2.079 9.131-4.571 20.045L21.709 51.82h-5.148l.043-.382c.434-3.896 3.47-35.267 3.416-35.29-.042-.018-.09-.018-.107 0-.032.032-8.138 35.51-8.138 35.614 0 .032-.708.058-1.573.058s-1.572-.01-1.57-.022z" />
  <path fill="black" d="M8.631 51.798c.001-.013 2.056-9.023 4.566-20.023l4.564-20 2.625-.024c1.444-.013 2.625.002 2.625.032 0 .091-3.226 33.391-3.285 33.902-.033.292-.02.472.037.472.05 0 .111-.07.137-.157.026-.087 1.016-4.404 2.2-9.596l3.891-17.056 1.739-7.618h3.122l-.04.203c-.02.11-2.078 9.131-4.57 20.045L21.711 51.82h-5.16l.042-.292c.04-.272 2.99-30.17 3.326-33.71.133-1.402.133-1.814 0-1.676-.034.036-8.144 35.508-8.144 35.622 0 .031-.708.056-1.573.056s-1.572-.01-1.57-.022zm19.091-.268c.031-.162 1.931-8.485 4.221-18.496l4.164-18.203-2.062-.024c-1.587-.018-2.054-.05-2.024-.135a45.6 45.6 0 00.342-1.481l.303-1.37h11.832l-.063.246c-.035.136-.19.794-.343 1.461l-.28 1.214-2.068.024-2.069.024-4.223 18.493-4.223 18.492-1.782.025-1.782.024z" />
  <path fill="black" d="M41.046 52.087c-1.855-.211-2.889-.825-3.458-2.054-.194-.418-.24-.668-.268-1.449-.04-1.119-.026-1.207.806-4.876l.648-2.854h3.583l-.063.247c-.367 1.451-1.235 5.467-1.275 5.896-.125 1.361.544 2.124 1.866 2.126 1.2.002 2.125-.696 2.604-1.964.106-.279.535-1.984.955-3.788.828-3.567.963-4.582.754-5.685-.058-.31-.951-3.01-1.984-6-1.033-2.992-1.93-5.62-1.992-5.843-.069-.245-.114-.939-.114-1.753 0-1.338.004-1.368.564-3.775.92-3.959.977-4.157 1.506-5.245.42-.865.6-1.124 1.187-1.716 1.13-1.139 2.396-1.71 4.193-1.893.945-.095 2.368-.008 3.06.188 1.633.463 2.563 1.693 2.561 3.39 0 .664-.32 2.39-.888 4.781l-.523 2.202-1.766.025c-1.345.018-1.766-.002-1.766-.086 0-.06.263-1.27.584-2.687.653-2.878.73-3.665.408-4.191-.283-.465-.653-.611-1.531-.607-.873.005-1.298.172-1.83.72-.476.49-.722 1.199-1.418 4.085-.547 2.267-.646 2.802-.684 3.693-.027.622-.003 1.238.059 1.528.056.268.929 2.813 1.938 5.655C49.77 33 50.668 35.59 50.756 35.91c.12.44.158.918.156 1.933l-.003 1.348-.868 3.955c-.477 2.175-.973 4.226-1.101 4.558-.43 1.109-1.395 2.36-2.377 3.082-.622.457-1.635.933-2.4 1.128-.825.211-2.142.284-3.117.173z" />
	<path transform="scale(1), translate(43, 40)" d="M2 2v20h20V2zm11.75 16.87h-3V8.1a14.18 14.18 0 01-2.39 1.56V7a8.71 8.71 0 002.7-2.17h2.69z"/>
</svg>
